<?xml version="1.0" encoding="utf-8"?>
<!-- Generator: Adobe Illustrator 22.0.0, SVG Export Plug-In . SVG Version: 6.00 Build 0)  -->
<svg version="1.1" id="logo" xmlns="http://www.w3.org/2000/svg" xmlns:xlink="http://www.w3.org/1999/xlink" x="0px" y="0px"
	 viewBox="0 0 141 31" style="enable-background:new 0 0 141 31;" xml:space="preserve">
<style type="text/css">
	.st0{fill:#FE0101;}
</style>
<g>
	<path class="st0" d="M31.2,12.3c0,0.7-0.1,1.4,0,2c0.1,0.6,0.1,1.2,0.1,1.7c0,0.6,0.1,1.1,0.1,1.6s0.1,1,0.1,1.5c0,0.1,0,0.2,0,0.3
		L22.7,7.5h-3.4v9H3.5v3h15.8V25H23v-6.2c0-0.4,0-0.7,0-1s0-0.7,0-1c0-0.4-0.1-0.7-0.1-1.2s0-1-0.1-1.6c0-0.2,0-0.4,0-0.6L31.5,25
		h3.4V7.5h-3.7V12.3z"/>
	<polygon class="st0" points="43,17.7 50,17.7 50,14.5 43,14.5 43,10.8 51.1,10.8 51.1,7.5 39.3,7.5 39.3,25 51.4,25 51.4,21.7 
		43,21.7 	"/>
	<polygon class="st0" points="70,7.5 65.6,7.5 61.8,13.4 57.8,7.5 53.2,7.5 59.4,16.1 53.1,25 57.5,25 61.6,19.2 65.6,25 65.6,25.1 
		70.2,25.1 63.9,16.4 	"/>
	<polygon class="st0" points="71.2,10.9 76.3,10.9 76.3,25 80,25 80,10.9 85.3,10.9 85.3,7.5 71.2,7.5 	"/>
	<polygon class="st0" points="92,17.7 99,17.7 99,14.5 92,14.5 92,10.8 100.2,10.8 100.2,7.5 88.4,7.5 88.4,25 100.4,25 100.4,21.7 
		92,21.7 	"/>
	<path class="st0" d="M115.2,18c0,0.7-0.2,1.3-0.5,1.9c-0.3,0.5-0.7,1-1.3,1.3c-0.6,0.3-1.2,0.5-1.9,0.5s-1.3-0.2-1.8-0.5
		c-0.6-0.3-1-0.7-1.3-1.3c-0.3-0.6-0.5-1.2-0.5-1.9V7.5h-3.8v10.8c0,1.3,0.4,2.5,1,3.5c0.6,1.1,1.5,1.9,2.6,2.5
		c1.1,0.6,2.4,0.9,3.8,0.9s2.6-0.3,3.7-0.9c1.1-0.6,2-1.5,2.6-2.5c0.7-1,1-2.2,1-3.5V7.5h-3.6V18z"/>
	<path class="st0" d="M134.6,7.6l-3.4,9.5c-0.2,0.6-0.4,1.2-0.6,1.7c-0.2,0.5-0.4,1-0.5,1.4c0,0,0,0.1,0,0.1
		c-0.1-0.3-0.2-0.6-0.3-0.8c-0.1-0.3-0.3-0.7-0.4-1.1c-0.1-0.4-0.3-0.9-0.5-1.4l-3.7-9.5h-4l7,17.5v0.1h3.4l7-17.5H134.6z"/>
	<rect y="16.5" class="st0" width="1.5" height="3"/>
</g>
</svg>
