<?xml version="1.0" encoding="UTF-8"?>
<svg id="Layer_1" data-name="Layer 1" xmlns="http://www.w3.org/2000/svg" viewBox="0 0 425.2 134.82">
  <defs>
    <style>
      .cls-1 {
        fill: #010101;
        stroke-width: 0px;
      }
    </style>
  </defs>
  <g>
    <path class="cls-1" d="m105.67,109.83H32.63v-9.78c0-21.92,17.83-39.75,39.75-39.75h33.29v19.56h-33.29c-7.58,0-14.21,4.2-17.65,10.41h50.95v19.56Z"/>
    <rect class="cls-1" x="32.58" y="30.34" width="73.09" height="19.56"/>
  </g>
  <g>
    <g>
      <path class="cls-1" d="m182.45,63.36c0,6.34-6.82,8.04-11.96,8.04s-11.96-1.7-11.96-8.04v-11.55h5.03v10.87c0,2.97,2.78,4.78,6.93,4.78s6.93-1.81,6.93-4.78v-10.87h5.03v11.55Z"/>
      <path class="cls-1" d="m202.9,70.88l-6.54-7.1h-5.77v7.1h-5.32v-19.08h17.52c3.65,0,6.76,1.9,6.76,5.86,0,3.59-2.66,5.66-6.03,5.83h-.85l7.33,7.39h-7.1Zm-1.36-15.06h-10.95v4.16h11.15c1.5,0,2.6-.65,2.6-2.15,0-1.3-1.13-2.01-2.8-2.01Z"/>
      <path class="cls-1" d="m225.89,71.39c-6.85,0-13.87-2.77-13.87-10.05s6.99-10.05,13.87-10.05,13.87,2.8,13.87,10.05-6.93,10.05-13.87,10.05Zm0-16.16c-5.04,0-8.26,2.24-8.26,6.11s3.23,6.11,8.26,6.11,8.21-2.21,8.21-6.11-3.23-6.11-8.21-6.11Z"/>
      <g>
        <polygon class="cls-1" points="155.72 55.83 155.72 51.81 131.86 51.81 131.86 70.88 155.72 70.88 155.72 67.06 136.56 67.06 136.56 55.83 155.72 55.83"/>
        <polygon class="cls-1" points="155.72 63.83 147.31 63.83 139.17 59.09 155.72 59.09 155.72 63.83"/>
      </g>
    </g>
    <g>
      <path class="cls-1" d="m329.17,70.89l-6.54-7.1h-5.77v7.1h-5.32v-19.08h17.52c3.65,0,6.76,1.9,6.76,5.86,0,3.59-2.66,5.66-6.03,5.83h-.85l7.33,7.39h-7.1Zm-1.36-15.06h-10.95v4.16h11.15c1.5,0,2.6-.65,2.6-2.15,0-1.3-1.13-2.01-2.8-2.01Z"/>
      <rect class="cls-1" x="338.63" y="51.81" width="5.32" height="19.08"/>
      <polygon class="cls-1" points="358.07 70.89 346.69 61.41 346.69 61.24 358.29 51.81 365.85 51.81 353.79 61.32 365.82 70.89 358.07 70.89"/>
      <polygon class="cls-1" points="275.58 51.81 266.47 66.22 257.44 51.81 251.49 51.81 257.52 61.18 254.35 66.22 245.35 51.81 238.79 51.81 251.44 71.06 256.96 71.06 260.41 65.68 263.89 71.06 269.38 71.06 282.01 51.81 275.58 51.81"/>
      <g>
        <polygon class="cls-1" points="308.72 55.83 308.72 51.81 284.86 51.81 284.86 70.88 308.72 70.88 308.72 67.06 289.57 67.06 289.57 55.83 308.72 55.83"/>
        <polygon class="cls-1" points="308.72 63.83 300.32 63.83 292.18 59.09 308.72 59.09 308.72 63.83"/>
      </g>
      <g>
        <polygon class="cls-1" points="392.62 55.83 392.62 51.81 368.76 51.81 368.76 70.88 392.62 70.88 392.62 67.06 373.47 67.06 373.47 55.83 392.62 55.83"/>
        <polygon class="cls-1" points="392.62 63.83 384.22 63.83 376.07 59.09 392.62 59.09 392.62 63.83"/>
      </g>
    </g>
  </g>
  <g>
    <path class="cls-1" d="m131.98,86.9v-.92s.02-.06.06-.06h1.58s.06.02.06.06v.88c0,.31.09.53.28.67.19.14.5.21.96.21s.77-.05.95-.14c.18-.09.27-.28.27-.55v-.63c0-.21-.07-.38-.21-.52s-.32-.25-.54-.34c-.21-.09-.51-.19-.89-.31-.56-.17-1-.32-1.33-.45s-.6-.33-.83-.6c-.23-.27-.34-.61-.34-1.04v-.73c0-.66.25-1.15.74-1.47.49-.32,1.2-.48,2.12-.48s1.69.17,2.21.52c.51.35.77.9.77,1.65v.86s-.02.06-.06.06h-1.57s-.06-.02-.06-.06v-.81c0-.29-.1-.51-.29-.65-.19-.14-.52-.21-.98-.21-.41,0-.71.06-.9.17-.19.11-.29.27-.29.49v.52c0,.25.13.45.38.59s.66.3,1.21.48c.57.17,1.02.33,1.34.47s.61.34.85.61c.24.27.36.6.36,1.02v.95c0,.71-.25,1.21-.75,1.52-.5.31-1.23.46-2.17.46s-1.69-.17-2.19-.52c-.5-.35-.75-.91-.75-1.69Z"/>
    <path class="cls-1" d="m149.58,86.27v-2.92c0-.96.28-1.67.84-2.15.56-.47,1.32-.71,2.26-.71s1.73.24,2.28.71c.55.47.83,1.19.83,2.15v2.92c0,.96-.28,1.67-.83,2.14-.55.47-1.31.7-2.28.7s-1.7-.23-2.26-.7c-.56-.47-.84-1.18-.84-2.14Zm4.52-.08v-2.77c0-.51-.12-.89-.36-1.15-.24-.26-.59-.39-1.05-.39s-.79.13-1.04.39c-.25.26-.37.65-.37,1.15v2.77c0,.51.12.89.37,1.15.25.26.59.39,1.05.39s.81-.13,1.05-.39c.24-.26.36-.64.36-1.16Z"/>
    <path class="cls-1" d="m172.67,81.91s-.02.07-.06.07h-3.11v2.09h2.88s.06.02.06.07v1.21s-.02.07-.06.07h-2.88v3.52s-.02.06-.06.06h-1.57s-.06-.02-.06-.06v-8.27s.02-.06.06-.06h4.74s.06.02.06.07v1.22Z"/>
    <path class="cls-1" d="m189.77,81.89c0,.06-.02.08-.06.08h-2.13v6.97s-.02.06-.06.06h-1.58s-.06-.02-.06-.06v-6.97h-2.13s-.07-.03-.07-.08v-1.2c0-.06.02-.08.07-.08h5.96s.06.03.06.08v1.2Z"/>
    <path class="cls-1" d="m200.53,80.67s0-.06.05-.06h1.66s.04.02.06.05l.78,3.41c.13.52.25,1.12.33,1.78.09.66.14,1.16.15,1.5h.13c0-.32.04-.82.11-1.49.06-.67.14-1.27.23-1.79l.55-3.41s.04-.05.07-.05h1.74s.06.02.06.05l.55,3.41c.1.53.17,1.13.24,1.79s.1,1.16.11,1.49h.13c.02-.35.07-.86.15-1.53.09-.67.19-1.26.32-1.75l.78-3.41s.04-.05.06-.05h1.66s.06.02.05.06l-1.95,8.27s-.04.06-.06.06h-2s-.04-.02-.06-.06l-.5-2.42c-.1-.5-.17-1.12-.24-1.86-.06-.74-.1-1.35-.11-1.81h-.14c0,.47-.04,1.07-.11,1.81-.06.74-.14,1.36-.24,1.86l-.5,2.42s-.04.06-.06.06h-2s-.04-.02-.06-.06l-1.96-8.27Z"/>
    <path class="cls-1" d="m226.05,89s-.06-.02-.07-.06l-.44-1.68h-2.39l-.44,1.68s-.04.06-.07.06h-1.62s-.06-.02-.05-.06l2.12-8.27s.04-.06.07-.06h2.39s.04.02.06.06l2.1,8.27s0,.06-.05.06h-1.62Zm-1.36-4.9c-.05-.25-.1-.6-.15-1.04-.06-.44-.09-.77-.11-.98h-.18c-.02.21-.05.54-.11.97-.06.44-.11.78-.15,1.05l-.49,1.82h1.68l-.49-1.82Z"/>
    <path class="cls-1" d="m243.38,89s-.06-.01-.07-.04c-.06-.1-.08-.3-.08-.58v-1.91c0-.32-.08-.54-.23-.66-.15-.12-.4-.18-.75-.18h-1.38v3.32s-.02.06-.06.06h-1.57s-.06-.02-.06-.06v-8.27s.02-.06.06-.06h3.21c.81,0,1.41.14,1.82.43.4.29.61.74.61,1.38v.87c0,.44-.1.8-.3,1.08-.2.28-.47.45-.81.51v.07c.36.05.64.18.86.4.21.22.32.53.32.92v1.59c0,.24,0,.44.02.6.02.16.05.32.11.47.02.05,0,.07-.05.07h-1.64Zm-.4-6.86c-.14-.11-.37-.17-.68-.17h-1.43v2.32h1.47c.29,0,.51-.06.64-.17.13-.12.2-.3.2-.56v-.84c0-.26-.07-.45-.21-.56Z"/>
    <path class="cls-1" d="m258.62,84.05h2.88s.06.02.06.06v1.25s-.02.06-.06.06h-2.88v2.21h3.11s.06.02.06.06v1.26s-.02.06-.06.06h-4.74s-.06-.02-.06-.06v-8.27s.02-.06.06-.06h4.74s.06.02.06.06v1.24s-.02.07-.06.07h-3.11v2.07Z"/>
    <path class="cls-1" d="m273.37,86.9v-.92s.02-.06.06-.06h1.58s.06.02.06.06v.88c0,.31.09.53.28.67.19.14.5.21.96.21s.77-.05.95-.14c.18-.09.27-.28.27-.55v-.63c0-.21-.07-.38-.21-.52s-.32-.25-.54-.34c-.21-.09-.51-.19-.89-.31-.56-.17-1-.32-1.33-.45s-.6-.33-.83-.6c-.23-.27-.34-.61-.34-1.04v-.73c0-.66.25-1.15.74-1.47.49-.32,1.2-.48,2.12-.48s1.69.17,2.21.52c.51.35.77.9.77,1.65v.86s-.02.06-.06.06h-1.57s-.06-.02-.06-.06v-.81c0-.29-.1-.51-.29-.65-.19-.14-.52-.21-.98-.21-.41,0-.71.06-.9.17-.19.11-.29.27-.29.49v.52c0,.25.13.45.38.59s.66.3,1.21.48c.57.17,1.02.33,1.34.47s.61.34.85.61c.24.27.36.6.36,1.02v.95c0,.71-.25,1.21-.75,1.52-.5.31-1.23.46-2.17.46s-1.69-.17-2.19-.52c-.5-.35-.75-.91-.75-1.69Z"/>
  </g>
</svg>