<?xml version="1.0" encoding="UTF-8"?>
<svg id="Layer_1" data-name="Layer 1" xmlns="http://www.w3.org/2000/svg" viewBox="0 0 425.2 425.2">
  <defs>
    <style>
      .cls-1 {
        fill: #010101;
      }

      .cls-1, .cls-2 {
        stroke-width: 0px;
      }

      .cls-2 {
        fill: #fff;
      }
    </style>
  </defs>
  <g>
    <path class="cls-1" d="m258.75,207.37h-103.04v-13.8c0-30.92,25.15-56.07,56.07-56.07h46.97v27.59h-46.97c-10.7,0-20.04,5.93-24.91,14.68h71.87v27.59Z"/>
    <rect class="cls-1" x="155.64" y="95.23" width="103.11" height="27.59"/>
  </g>
  <g>
    <g>
      <path class="cls-2" d="m100.04,252.19c0,8.94-9.63,11.34-16.87,11.34s-16.87-2.4-16.87-11.34v-16.29h7.1v15.33c0,4.19,3.93,6.75,9.78,6.75s9.78-2.56,9.78-6.75v-15.33h7.1v16.29Z"/>
      <path class="cls-2" d="m128.88,262.82l-9.22-10.02h-8.15v10.02h-7.51v-26.91h24.72c5.15,0,9.54,2.68,9.54,8.27,0,5.07-3.75,7.99-8.5,8.23h-1.2l10.34,10.42h-10.02Zm-1.92-21.24h-15.45v5.87h15.73c2.12,0,3.67-.92,3.67-3.03,0-1.84-1.6-2.83-3.95-2.83Z"/>
      <path class="cls-2" d="m161.32,263.53c-9.66,0-19.56-3.91-19.56-14.17s9.86-14.17,19.56-14.17,19.56,3.95,19.56,14.17-9.78,14.17-19.56,14.17Zm0-22.8c-7.11,0-11.66,3.15-11.66,8.62s4.55,8.62,11.66,8.62,11.58-3.11,11.58-8.62-4.55-8.62-11.58-8.62Z"/>
      <g>
        <polygon class="cls-2" points="62.32 241.57 62.32 235.9 28.66 235.9 28.66 262.82 62.32 262.82 62.32 257.42 35.31 257.42 35.31 241.57 62.32 241.57"/>
        <polygon class="cls-2" points="62.32 252.87 50.47 252.87 38.98 246.17 62.32 246.17 62.32 252.87"/>
      </g>
    </g>
    <g>
      <path class="cls-2" d="m307.02,262.82l-9.22-10.02h-8.15v10.02h-7.51v-26.91h24.72c5.15,0,9.54,2.68,9.54,8.27,0,5.07-3.75,7.99-8.5,8.23h-1.2l10.34,10.42h-10.02Zm-1.92-21.24h-15.45v5.87h15.73c2.12,0,3.67-.92,3.67-3.03,0-1.84-1.6-2.83-3.95-2.83Z"/>
      <rect class="cls-2" x="320.37" y="235.91" width="7.51" height="26.91"/>
      <polygon class="cls-2" points="347.79 262.82 331.73 249.45 331.73 249.21 348.1 235.91 358.77 235.91 341.76 249.33 358.73 262.82 347.79 262.82"/>
      <polygon class="cls-2" points="231.42 235.91 218.56 256.24 205.83 235.91 197.44 235.91 205.95 249.13 201.47 256.24 188.78 235.91 179.51 235.91 197.36 263.06 205.15 263.06 210.02 255.48 214.93 263.06 222.68 263.06 240.48 235.91 231.42 235.91"/>
      <g>
        <polygon class="cls-2" points="278.17 241.57 278.17 235.9 244.51 235.9 244.51 262.82 278.17 262.82 278.17 257.42 251.15 257.42 251.15 241.57 278.17 241.57"/>
        <polygon class="cls-2" points="278.17 252.87 266.32 252.87 254.83 246.17 278.17 246.17 278.17 252.87"/>
      </g>
      <g>
        <polygon class="cls-2" points="396.53 241.57 396.53 235.9 362.87 235.9 362.87 262.82 396.53 262.82 396.53 257.42 369.51 257.42 369.51 241.57 396.53 241.57"/>
        <polygon class="cls-2" points="396.53 252.87 384.67 252.87 373.19 246.17 396.53 246.17 396.53 252.87"/>
      </g>
    </g>
  </g>
  <g>
    <path class="cls-2" d="m108.73,285.41v-1.29c0-.06.03-.08.08-.08h2.23c.06,0,.08.03.08.08v1.24c0,.44.13.75.39.95.26.2.71.29,1.35.29s1.08-.06,1.34-.19c.26-.13.39-.39.39-.78v-.89c0-.29-.1-.53-.3-.73s-.45-.35-.75-.48c-.3-.12-.72-.27-1.26-.44-.79-.23-1.42-.45-1.87-.64s-.84-.47-1.17-.85c-.32-.37-.49-.86-.49-1.47v-1.02c0-.93.35-1.62,1.04-2.07.69-.45,1.69-.68,2.98-.68s2.39.25,3.11.74c.72.49,1.08,1.27,1.08,2.33v1.21c0,.06-.03.08-.08.08h-2.21c-.06,0-.08-.03-.08-.08v-1.14c0-.41-.13-.72-.4-.92-.27-.2-.73-.3-1.38-.3-.58,0-1.01.08-1.27.23-.27.16-.4.39-.4.69v.74c0,.36.18.64.54.84s.93.43,1.71.67c.81.25,1.44.47,1.89.66s.86.48,1.2.85c.34.37.51.85.51,1.43v1.34c0,.99-.35,1.71-1.06,2.14-.71.43-1.73.65-3.06.65s-2.38-.25-3.09-.74c-.7-.49-1.06-1.29-1.06-2.38Z"/>
    <path class="cls-2" d="m133.57,284.52v-4.13c0-1.35.4-2.36,1.19-3.03.79-.66,1.86-1,3.19-1s2.43.33,3.21,1c.78.67,1.17,1.67,1.17,3.03v4.13c0,1.35-.39,2.36-1.17,3.02-.78.66-1.85.99-3.21.99s-2.39-.33-3.19-.99c-.79-.66-1.19-1.67-1.19-3.02Zm6.37-.12v-3.91c0-.72-.17-1.26-.51-1.63-.34-.37-.84-.55-1.48-.55s-1.12.18-1.47.55c-.35.37-.53.91-.53,1.63v3.91c0,.72.17,1.26.52,1.63.35.37.84.55,1.48.55s1.14-.18,1.48-.54c.34-.36.51-.91.51-1.63Z"/>
    <path class="cls-2" d="m166.13,278.37c0,.07-.03.1-.08.1h-4.39v2.95h4.06c.06,0,.08.03.08.1v1.71c0,.07-.03.1-.08.1h-4.06v4.96c0,.06-.03.08-.08.08h-2.21c-.06,0-.08-.03-.08-.08v-11.67c0-.06.03-.08.08-.08h6.69c.06,0,.08.03.08.1v1.73Z"/>
    <path class="cls-2" d="m190.26,278.35c0,.08-.03.12-.08.12h-3v9.83c0,.06-.03.08-.08.08h-2.23c-.06,0-.08-.03-.08-.08v-9.83h-3c-.07,0-.1-.04-.1-.12v-1.69c0-.08.03-.12.1-.12h8.4c.06,0,.08.04.08.12v1.69Z"/>
    <path class="cls-2" d="m205.44,276.62c-.02-.06,0-.08.07-.08h2.35s.06.02.08.07l1.11,4.81c.19.74.35,1.57.47,2.51.12.93.2,1.64.22,2.12h.18c.01-.46.06-1.16.15-2.1.09-.94.2-1.79.32-2.52l.77-4.81s.06-.07.1-.07h2.45c.06,0,.08.02.08.07l.77,4.81c.13.75.25,1.59.34,2.53s.14,1.64.15,2.1h.18c.02-.49.09-1.21.22-2.16.12-.95.27-1.77.45-2.47l1.11-4.81s.05-.07.08-.07h2.35c.07,0,.09.03.07.08l-2.75,11.67c-.02.06-.05.08-.08.08h-2.82s-.06-.03-.08-.08l-.7-3.42c-.13-.7-.25-1.58-.34-2.62-.09-1.04-.14-1.9-.15-2.56h-.2c-.01.66-.06,1.51-.15,2.56-.09,1.05-.2,1.92-.34,2.62l-.7,3.42c-.02.06-.05.08-.08.08h-2.82s-.06-.03-.08-.08l-2.77-11.67Z"/>
    <path class="cls-2" d="m241.44,288.38s-.08-.03-.1-.08l-.62-2.36h-3.37l-.62,2.36c-.02.06-.06.08-.1.08h-2.28c-.07,0-.09-.03-.07-.08l2.98-11.67c.02-.06.06-.08.1-.08h3.37s.06.03.08.08l2.97,11.67c.02.06,0,.08-.07.08h-2.28Zm-1.91-6.91c-.07-.36-.14-.85-.22-1.47-.08-.62-.13-1.08-.15-1.38h-.25c-.02.3-.07.76-.15,1.37-.08.62-.15,1.11-.22,1.48l-.69,2.57h2.36l-.69-2.57Z"/>
    <path class="cls-2" d="m265.89,288.38s-.08-.02-.1-.05c-.08-.15-.12-.42-.12-.82v-2.7c0-.45-.11-.76-.32-.93-.21-.17-.56-.26-1.06-.26h-1.95v4.68c0,.06-.03.08-.08.08h-2.21c-.06,0-.08-.03-.08-.08v-11.67c0-.06.03-.08.08-.08h4.53c1.14,0,2,.2,2.57.6.57.4.85,1.05.85,1.95v1.22c0,.63-.14,1.13-.43,1.53-.28.39-.67.63-1.15.72v.1c.5.07.91.26,1.21.57.3.31.45.74.45,1.29v2.25c0,.34.01.62.03.85.02.23.07.45.15.66.02.07,0,.1-.07.1h-2.31Zm-.57-9.68c-.2-.16-.52-.24-.96-.24h-2.01v3.27h2.08c.41,0,.72-.08.91-.24.19-.16.29-.43.29-.8v-1.19c0-.37-.1-.63-.3-.8Z"/>
    <path class="cls-2" d="m287.39,281.38h4.06c.06,0,.08.03.08.08v1.76c0,.06-.03.08-.08.08h-4.06v3.12h4.39c.06,0,.08.03.08.08v1.78c0,.06-.03.08-.08.08h-6.69c-.06,0-.08-.03-.08-.08v-11.67c0-.06.03-.08.08-.08h6.69c.06,0,.08.03.08.08v1.74c0,.07-.03.1-.08.1h-4.39v2.92Z"/>
    <path class="cls-2" d="m308.2,285.41v-1.29c0-.06.03-.08.08-.08h2.23c.06,0,.08.03.08.08v1.24c0,.44.13.75.39.95.26.2.71.29,1.35.29s1.08-.06,1.34-.19c.26-.13.39-.39.39-.78v-.89c0-.29-.1-.53-.3-.73s-.45-.35-.75-.48c-.3-.12-.72-.27-1.26-.44-.79-.23-1.42-.45-1.87-.64s-.84-.47-1.17-.85c-.32-.37-.49-.86-.49-1.47v-1.02c0-.93.35-1.62,1.04-2.07.69-.45,1.69-.68,2.98-.68s2.39.25,3.11.74c.72.49,1.08,1.27,1.08,2.33v1.21c0,.06-.03.08-.08.08h-2.21c-.06,0-.08-.03-.08-.08v-1.14c0-.41-.13-.72-.4-.92-.27-.2-.73-.3-1.38-.3-.58,0-1.01.08-1.27.23-.27.16-.4.39-.4.69v.74c0,.36.18.64.54.84s.93.43,1.71.67c.81.25,1.44.47,1.89.66s.86.48,1.2.85c.34.37.51.85.51,1.43v1.34c0,.99-.35,1.71-1.06,2.14-.71.43-1.73.65-3.06.65s-2.38-.25-3.09-.74c-.7-.49-1.06-1.29-1.06-2.38Z"/>
  </g>
</svg>